<svg width="720" height="720" viewBox="0 0 720 720" xmlns="http://www.w3.org/2000/svg"><rect width="720" height="720" fill="#32607f"/><path d="M708,360.99999999999994C716.1117471708845,414.92051066415075,656.2184117838116,491.23092188491165,600.8850784504782,550.8975885515783C545.5517451171448,610.564255218245,441.71025454195285,724.4191868861103,376,719C310.28974545804715,713.5808131138897,239.0515679598961,571.5491339015833,206.62355119876108,518.3824672349167C174.19553443762607,465.2158005682501,178.5069461052875,445.18870624952285,181.43189943318995,400.00000000000006C184.3568527610924,354.81129375047726,190.41192107170735,287.96805864315047,224.17327116617568,247.25022973777985C257.934621260644,206.53240083240925,329.32644595683405,159.0056440962942,383.99999999999994,155.69302656777643C438.67355404316584,152.38040903925867,498.21459542517096,193.15669566130276,552.214595425171,227.37452456667336C606.214595425171,261.59235347204395,699.8882528291155,307.07948933584913,708,360.99999999999994C716.1117471708845,414.92051066415075,656.2184117838116,491.23092188491165,600.8850784504782,550.8975885515783" fill="#cf80b3"/></svg>